<?xml version="1.0" encoding="UTF-8" standalone="no"?>
<!DOCTYPE svg PUBLIC "-//W3C//DTD SVG 1.1//EN"
 "http://www.w3.org/Graphics/SVG/1.1/DTD/svg11.dtd">
<!-- Generated by graphviz version 2.43.0 (0)
 -->
<!-- Title: G Pages: 1 -->
<svg width="498pt" height="560pt"
 viewBox="0.00 0.00 498.00 560.00" xmlns="http://www.w3.org/2000/svg" xmlns:xlink="http://www.w3.org/1999/xlink">
<g id="graph0" class="graph" transform="scale(1 1) rotate(0) translate(4 556)">
<title>G</title>
<polygon fill="white" stroke="transparent" points="-4,4 -4,-556 494,-556 494,4 -4,4"/>
<!-- achievement -->
<g id="node1" class="node">
<title>achievement</title>
<text text-anchor="start" x="30" y="-185.4" font-family="Bitstream-Vera Sans" font-size="7.00">achievement</text>
<polygon fill="none" stroke="black" points="9.5,-179 9.5,-181 98.5,-181 98.5,-179 9.5,-179"/>
<text text-anchor="start" x="11.5" y="-171.4" font-family="Bitstream-Vera Sans" font-size="7.00">&#45; id : INTEGER</text>
<text text-anchor="start" x="11.5" y="-159.4" font-family="Bitstream-Vera Sans" font-size="7.00">&#45; title : VARCHAR</text>
<text text-anchor="start" x="11.5" y="-147.4" font-family="Bitstream-Vera Sans" font-size="7.00">&#45; description : VARCHAR</text>
<text text-anchor="start" x="11.5" y="-135.4" font-family="Bitstream-Vera Sans" font-size="7.00">&#45; value : INTEGER</text>
<text text-anchor="start" x="11.5" y="-123.4" font-family="Bitstream-Vera Sans" font-size="7.00">&#45; hidden : BOOLEAN</text>
<polygon fill="none" stroke="black" points="8,-118 8,-194 99,-194 99,-118 8,-118"/>
</g>
<!-- user_achievements -->
<g id="node9" class="node">
<title>user_achievements</title>
<text text-anchor="start" x="80" y="-35.4" font-family="Bitstream-Vera Sans" font-size="7.00">user_achievements</text>
<polygon fill="none" stroke="black" points="63.5,-29 63.5,-31 167.5,-31 167.5,-29 63.5,-29"/>
<text text-anchor="start" x="65.5" y="-21.4" font-family="Bitstream-Vera Sans" font-size="7.00">&#45; user_id : INTEGER</text>
<text text-anchor="start" x="65.5" y="-9.4" font-family="Bitstream-Vera Sans" font-size="7.00">&#45; achievement_id : INTEGER</text>
<polygon fill="none" stroke="black" points="62.5,-4 62.5,-44 168.5,-44 168.5,-4 62.5,-4"/>
</g>
<!-- achievement&#45;&gt;user_achievements -->
<g id="edge12" class="edge">
<title>achievement&#45;&gt;user_achievements</title>
<path fill="none" stroke="black" d="M73.12,-113.87C83.48,-92.15 95.8,-66.3 104.49,-48.09"/>
<text text-anchor="middle" x="96.49" y="-50.49" font-family="Bitstream-Vera Sans" font-size="7.00">+ id</text>
<text text-anchor="middle" x="39.62" y="-108.27" font-family="Bitstream-Vera Sans" font-size="7.00">+ achievement_id</text>
</g>
<!-- ingredient -->
<g id="node2" class="node">
<title>ingredient</title>
<text text-anchor="start" x="369" y="-419.4" font-family="Bitstream-Vera Sans" font-size="7.00">ingredient</text>
<polygon fill="none" stroke="black" points="343.5,-413 343.5,-415 432.5,-415 432.5,-413 343.5,-413"/>
<text text-anchor="start" x="345.5" y="-405.4" font-family="Bitstream-Vera Sans" font-size="7.00">&#45; id : INTEGER</text>
<text text-anchor="start" x="345.5" y="-393.4" font-family="Bitstream-Vera Sans" font-size="7.00">&#45; type : VARCHAR(5)</text>
<text text-anchor="start" x="345.5" y="-381.4" font-family="Bitstream-Vera Sans" font-size="7.00">&#45; available : BOOLEAN</text>
<text text-anchor="start" x="345.5" y="-369.4" font-family="Bitstream-Vera Sans" font-size="7.00">&#45; meat : BOOLEAN</text>
<text text-anchor="start" x="345.5" y="-357.4" font-family="Bitstream-Vera Sans" font-size="7.00">&#45; vegetarian : BOOLEAN</text>
<text text-anchor="start" x="345.5" y="-345.4" font-family="Bitstream-Vera Sans" font-size="7.00">&#45; vegan : BOOLEAN</text>
<text text-anchor="start" x="345.5" y="-333.4" font-family="Bitstream-Vera Sans" font-size="7.00">&#45; gluten : BOOLEAN</text>
<text text-anchor="start" x="345.5" y="-321.4" font-family="Bitstream-Vera Sans" font-size="7.00">&#45; histamine : BOOLEAN</text>
<text text-anchor="start" x="345.5" y="-309.4" font-family="Bitstream-Vera Sans" font-size="7.00">&#45; fructose : BOOLEAN</text>
<text text-anchor="start" x="345.5" y="-297.4" font-family="Bitstream-Vera Sans" font-size="7.00">&#45; lactose : BOOLEAN</text>
<text text-anchor="start" x="345.5" y="-285.4" font-family="Bitstream-Vera Sans" font-size="7.00">&#45; name : VARCHAR</text>
<text text-anchor="start" x="345.5" y="-273.4" font-family="Bitstream-Vera Sans" font-size="7.00">&#45; session_id : INTEGER</text>
<polygon fill="none" stroke="black" points="342,-268 342,-428 433,-428 433,-268 342,-268"/>
</g>
<!-- pan_ingredients -->
<g id="node5" class="node">
<title>pan_ingredients</title>
<text text-anchor="start" x="277.5" y="-167.4" font-family="Bitstream-Vera Sans" font-size="7.00">pan_ingredients</text>
<polygon fill="none" stroke="black" points="259.5,-161 259.5,-163 354.5,-163 354.5,-161 259.5,-161"/>
<text text-anchor="start" x="261.5" y="-153.4" font-family="Bitstream-Vera Sans" font-size="7.00">&#45; pan_id : INTEGER</text>
<text text-anchor="start" x="261.5" y="-141.4" font-family="Bitstream-Vera Sans" font-size="7.00">&#45; ingredient_id : INTEGER</text>
<polygon fill="none" stroke="black" points="258,-136 258,-176 355,-176 355,-136 258,-136"/>
</g>
<!-- ingredient&#45;&gt;pan_ingredients -->
<g id="edge6" class="edge">
<title>ingredient&#45;&gt;pan_ingredients</title>
<path fill="none" stroke="black" d="M352.09,-263.94C339.06,-233.38 325.32,-201.15 316.38,-180.16"/>
<text text-anchor="middle" x="324.38" y="-182.56" font-family="Bitstream-Vera Sans" font-size="7.00">+ id</text>
<text text-anchor="middle" x="323.59" y="-258.34" font-family="Bitstream-Vera Sans" font-size="7.00">+ ingredient_id</text>
</g>
<!-- session -->
<g id="node7" class="node">
<title>session</title>
<text text-anchor="start" x="422" y="-185.4" font-family="Bitstream-Vera Sans" font-size="7.00">session</text>
<polygon fill="none" stroke="black" points="390.5,-179 390.5,-181 481.5,-181 481.5,-179 390.5,-179"/>
<text text-anchor="start" x="392.5" y="-171.4" font-family="Bitstream-Vera Sans" font-size="7.00">&#45; id : INTEGER</text>
<text text-anchor="start" x="392.5" y="-159.4" font-family="Bitstream-Vera Sans" font-size="7.00">&#45; key : VARCHAR</text>
<text text-anchor="start" x="392.5" y="-147.4" font-family="Bitstream-Vera Sans" font-size="7.00">&#45; name : VARCHAR</text>
<text text-anchor="start" x="392.5" y="-135.4" font-family="Bitstream-Vera Sans" font-size="7.00">&#45; timestamp : DATETIME</text>
<text text-anchor="start" x="392.5" y="-123.4" font-family="Bitstream-Vera Sans" font-size="7.00">&#45; active : BOOLEAN</text>
<polygon fill="none" stroke="black" points="389,-118 389,-194 482,-194 482,-118 389,-118"/>
</g>
<!-- ingredient&#45;&gt;session -->
<g id="edge1" class="edge">
<title>ingredient&#45;&gt;session</title>
<path fill="none" stroke="black" d="M408.48,-263.94C413.47,-244.2 418.64,-223.75 423.1,-206.1"/>
<ellipse fill="none" stroke="black" cx="424.11" cy="-202.07" rx="4" ry="4"/>
<text text-anchor="middle" x="417.09" y="-200.59" font-family="Bitstream-Vera Sans" font-size="7.00">+ id</text>
<text text-anchor="middle" x="385.48" y="-258.34" font-family="Bitstream-Vera Sans" font-size="7.00">+ session_id</text>
</g>
<!-- insult -->
<g id="node3" class="node">
<title>insult</title>
<text text-anchor="start" x="361" y="-521.4" font-family="Bitstream-Vera Sans" font-size="7.00">insult</text>
<polygon fill="none" stroke="black" points="339.5,-515 339.5,-517 403.5,-517 403.5,-515 339.5,-515"/>
<text text-anchor="start" x="341.5" y="-507.4" font-family="Bitstream-Vera Sans" font-size="7.00">&#45; id : INTEGER</text>
<text text-anchor="start" x="341.5" y="-495.4" font-family="Bitstream-Vera Sans" font-size="7.00">&#45; title : VARCHAR</text>
<polygon fill="none" stroke="black" points="338.5,-490 338.5,-530 404.5,-530 404.5,-490 338.5,-490"/>
</g>
<!-- rating -->
<g id="node4" class="node">
<title>rating</title>
<text text-anchor="start" x="250.5" y="-539.4" font-family="Bitstream-Vera Sans" font-size="7.00">rating</text>
<polygon fill="none" stroke="black" points="219.5,-533 219.5,-535 303.5,-535 303.5,-533 219.5,-533"/>
<text text-anchor="start" x="221.5" y="-525.4" font-family="Bitstream-Vera Sans" font-size="7.00">&#45; id : INTEGER</text>
<text text-anchor="start" x="221.5" y="-513.4" font-family="Bitstream-Vera Sans" font-size="7.00">&#45; rating : INTEGER</text>
<text text-anchor="start" x="221.5" y="-501.4" font-family="Bitstream-Vera Sans" font-size="7.00">&#45; user_id : INTEGER</text>
<text text-anchor="start" x="221.5" y="-489.4" font-family="Bitstream-Vera Sans" font-size="7.00">&#45; pan_id : INTEGER</text>
<text text-anchor="start" x="221.5" y="-477.4" font-family="Bitstream-Vera Sans" font-size="7.00">&#45; session_id : INTEGER</text>
<polygon fill="none" stroke="black" points="218.5,-472 218.5,-548 304.5,-548 304.5,-472 218.5,-472"/>
</g>
<!-- pan -->
<g id="node6" class="node">
<title>pan</title>
<text text-anchor="start" x="255" y="-383.4" font-family="Bitstream-Vera Sans" font-size="7.00">pan</text>
<polygon fill="none" stroke="black" points="216.5,-377 216.5,-379 307.5,-379 307.5,-377 216.5,-377"/>
<text text-anchor="start" x="218.5" y="-369.4" font-family="Bitstream-Vera Sans" font-size="7.00">&#45; id : INTEGER</text>
<text text-anchor="start" x="218.5" y="-357.4" font-family="Bitstream-Vera Sans" font-size="7.00">&#45; user_id : INTEGER</text>
<text text-anchor="start" x="218.5" y="-345.4" font-family="Bitstream-Vera Sans" font-size="7.00">&#45; timestamp : DATETIME</text>
<text text-anchor="start" x="218.5" y="-333.4" font-family="Bitstream-Vera Sans" font-size="7.00">&#45; snacked : BOOLEAN</text>
<text text-anchor="start" x="218.5" y="-321.4" font-family="Bitstream-Vera Sans" font-size="7.00">&#45; name : VARCHAR</text>
<text text-anchor="start" x="218.5" y="-309.4" font-family="Bitstream-Vera Sans" font-size="7.00">&#45; session_id : INTEGER</text>
<polygon fill="none" stroke="black" points="215,-304 215,-392 308,-392 308,-304 215,-304"/>
</g>
<!-- rating&#45;&gt;pan -->
<g id="edge3" class="edge">
<title>rating&#45;&gt;pan</title>
<path fill="none" stroke="black" d="M261.5,-467.8C261.5,-448.42 261.5,-425.05 261.5,-404.17"/>
<ellipse fill="none" stroke="black" cx="261.5" cy="-400.01" rx="4" ry="4"/>
<text text-anchor="middle" x="253.5" y="-398.41" font-family="Bitstream-Vera Sans" font-size="7.00">+ id</text>
<text text-anchor="middle" x="245" y="-462.2" font-family="Bitstream-Vera Sans" font-size="7.00">+ pan_id</text>
</g>
<!-- rating&#45;&gt;session -->
<g id="edge2" class="edge">
<title>rating&#45;&gt;session</title>
<path fill="none" stroke="black" d="M312.57,-472.54C315.54,-470.92 318.53,-469.39 321.5,-468 375.05,-443 413.82,-479.11 449.5,-432 498.95,-366.72 475.95,-265.67 455.32,-205.95"/>
<ellipse fill="none" stroke="black" cx="453.9" cy="-201.93" rx="4" ry="4"/>
<text text-anchor="middle" x="444.56" y="-200.56" font-family="Bitstream-Vera Sans" font-size="7.00">+ id</text>
<text text-anchor="middle" x="335.57" y="-474.94" font-family="Bitstream-Vera Sans" font-size="7.00">+ session_id</text>
</g>
<!-- user -->
<g id="node10" class="node">
<title>user</title>
<text text-anchor="start" x="171" y="-215.4" font-family="Bitstream-Vera Sans" font-size="7.00">user</text>
<polygon fill="none" stroke="black" points="134.5,-209 134.5,-211 223.5,-211 223.5,-209 134.5,-209"/>
<text text-anchor="start" x="136.5" y="-201.4" font-family="Bitstream-Vera Sans" font-size="7.00">&#45; id : INTEGER</text>
<text text-anchor="start" x="136.5" y="-189.4" font-family="Bitstream-Vera Sans" font-size="7.00">&#45; name : VARCHAR</text>
<text text-anchor="start" x="136.5" y="-177.4" font-family="Bitstream-Vera Sans" font-size="7.00">&#45; password : VARCHAR</text>
<text text-anchor="start" x="136.5" y="-165.4" font-family="Bitstream-Vera Sans" font-size="7.00">&#45; meat : BOOLEAN</text>
<text text-anchor="start" x="136.5" y="-153.4" font-family="Bitstream-Vera Sans" font-size="7.00">&#45; vegetarian : BOOLEAN</text>
<text text-anchor="start" x="136.5" y="-141.4" font-family="Bitstream-Vera Sans" font-size="7.00">&#45; vegan : BOOLEAN</text>
<text text-anchor="start" x="136.5" y="-129.4" font-family="Bitstream-Vera Sans" font-size="7.00">&#45; histamine : BOOLEAN</text>
<text text-anchor="start" x="136.5" y="-117.4" font-family="Bitstream-Vera Sans" font-size="7.00">&#45; fructose : BOOLEAN</text>
<text text-anchor="start" x="136.5" y="-105.4" font-family="Bitstream-Vera Sans" font-size="7.00">&#45; lactose : BOOLEAN</text>
<text text-anchor="start" x="136.5" y="-93.4" font-family="Bitstream-Vera Sans" font-size="7.00">&#45; gluten : BOOLEAN</text>
<polygon fill="none" stroke="black" points="133,-88 133,-224 224,-224 224,-88 133,-88"/>
</g>
<!-- rating&#45;&gt;user -->
<g id="edge4" class="edge">
<title>rating&#45;&gt;user</title>
<path fill="none" stroke="black" d="M219.35,-467.75C210.66,-456.96 202.61,-444.75 197.5,-432 172.47,-369.55 169.2,-292.76 171.34,-236.21"/>
<ellipse fill="none" stroke="black" cx="171.52" cy="-232.01" rx="4" ry="4"/>
<text text-anchor="middle" x="163.69" y="-230.41" font-family="Bitstream-Vera Sans" font-size="7.00">+ id</text>
<text text-anchor="middle" x="201.85" y="-462.15" font-family="Bitstream-Vera Sans" font-size="7.00">+ user_id</text>
</g>
<!-- pan&#45;&gt;pan_ingredients -->
<g id="edge5" class="edge">
<title>pan&#45;&gt;pan_ingredients</title>
<path fill="none" stroke="black" d="M272.74,-299.55C281.75,-261.51 294,-209.79 301,-180.24"/>
<text text-anchor="middle" x="293" y="-182.64" font-family="Bitstream-Vera Sans" font-size="7.00">+ id</text>
<text text-anchor="middle" x="256.24" y="-293.95" font-family="Bitstream-Vera Sans" font-size="7.00">+ pan_id</text>
</g>
<!-- pan&#45;&gt;session -->
<g id="edge7" class="edge">
<title>pan&#45;&gt;session</title>
<path fill="none" stroke="black" d="M293.75,-299.96C303.06,-287.71 313.65,-274.9 324.5,-264 343.06,-245.35 352.17,-245.85 371.5,-228 379.47,-220.64 387.54,-212.42 395.14,-204.25"/>
<ellipse fill="none" stroke="black" cx="398.15" cy="-200.97" rx="4" ry="4"/>
<text text-anchor="middle" x="392.85" y="-200.42" font-family="Bitstream-Vera Sans" font-size="7.00">+ id</text>
<text text-anchor="middle" x="305.25" y="-294.36" font-family="Bitstream-Vera Sans" font-size="7.00">+ session_id</text>
</g>
<!-- pan&#45;&gt;user -->
<g id="edge8" class="edge">
<title>pan&#45;&gt;user</title>
<path fill="none" stroke="black" d="M240.77,-299.55C232.35,-280.27 222.4,-257.49 212.94,-235.85"/>
<ellipse fill="none" stroke="black" cx="211.23" cy="-231.92" rx="4" ry="4"/>
<text text-anchor="middle" x="201.63" y="-230.65" font-family="Bitstream-Vera Sans" font-size="7.00">+ id</text>
<text text-anchor="middle" x="223.27" y="-293.95" font-family="Bitstream-Vera Sans" font-size="7.00">+ user_id</text>
</g>
<!-- user_sessions -->
<g id="node8" class="node">
<title>user_sessions</title>
<text text-anchor="start" x="315" y="-35.4" font-family="Bitstream-Vera Sans" font-size="7.00">user_sessions</text>
<polygon fill="none" stroke="black" points="298.5,-29 298.5,-31 382.5,-31 382.5,-29 298.5,-29"/>
<text text-anchor="start" x="300.5" y="-21.4" font-family="Bitstream-Vera Sans" font-size="7.00">&#45; user_id : INTEGER</text>
<text text-anchor="start" x="300.5" y="-9.4" font-family="Bitstream-Vera Sans" font-size="7.00">&#45; session_id : INTEGER</text>
<polygon fill="none" stroke="black" points="297.5,-4 297.5,-44 383.5,-44 383.5,-4 297.5,-4"/>
</g>
<!-- session&#45;&gt;user_sessions -->
<g id="edge10" class="edge">
<title>session&#45;&gt;user_sessions</title>
<path fill="none" stroke="black" d="M405.44,-113.87C389.57,-92.15 370.68,-66.3 357.37,-48.09"/>
<text text-anchor="middle" x="349.37" y="-50.49" font-family="Bitstream-Vera Sans" font-size="7.00">+ id</text>
<text text-anchor="middle" x="382.44" y="-108.27" font-family="Bitstream-Vera Sans" font-size="7.00">+ session_id</text>
</g>
<!-- user&#45;&gt;user_sessions -->
<g id="edge9" class="edge">
<title>user&#45;&gt;user_sessions</title>
<path fill="none" stroke="black" d="M232.26,-91.25C234.98,-88.73 237.73,-86.3 240.5,-84 256.86,-70.41 276.72,-58.01 294.42,-48.11"/>
<text text-anchor="middle" x="286.42" y="-50.51" font-family="Bitstream-Vera Sans" font-size="7.00">+ id</text>
<text text-anchor="middle" x="249.76" y="-93.65" font-family="Bitstream-Vera Sans" font-size="7.00">+ user_id</text>
</g>
<!-- user&#45;&gt;user_achievements -->
<g id="edge11" class="edge">
<title>user&#45;&gt;user_achievements</title>
<path fill="none" stroke="black" d="M144.05,-83.91C137.79,-70.99 131.68,-58.39 126.74,-48.19"/>
<text text-anchor="middle" x="118.74" y="-50.59" font-family="Bitstream-Vera Sans" font-size="7.00">+ id</text>
<text text-anchor="middle" x="126.55" y="-78.31" font-family="Bitstream-Vera Sans" font-size="7.00">+ user_id</text>
</g>
</g>
</svg>
