<?xml version="1.0" encoding="UTF-8" standalone="no"?>
<!DOCTYPE svg PUBLIC "-//W3C//DTD SVG 1.1//EN"
 "http://www.w3.org/Graphics/SVG/1.1/DTD/svg11.dtd">
<!-- Generated by graphviz version 2.43.0 (0)
 -->
<!-- Title: G Pages: 1 -->
<svg width="384pt" height="560pt"
 viewBox="0.00 0.00 384.00 560.00" xmlns="http://www.w3.org/2000/svg" xmlns:xlink="http://www.w3.org/1999/xlink">
<g id="graph0" class="graph" transform="scale(1 1) rotate(0) translate(4 556)">
<title>G</title>
<polygon fill="white" stroke="transparent" points="-4,4 -4,-556 380,-556 380,4 -4,4"/>
<!-- achievement -->
<g id="node1" class="node">
<title>achievement</title>
<text text-anchor="start" x="78.5" y="-539.4" font-family="Bitstream-Vera Sans" font-size="7.00">achievement</text>
<polygon fill="none" stroke="black" points="58,-533 58,-535 147,-535 147,-533 58,-533"/>
<text text-anchor="start" x="60" y="-525.4" font-family="Bitstream-Vera Sans" font-size="7.00">&#45; id : INTEGER</text>
<text text-anchor="start" x="60" y="-513.4" font-family="Bitstream-Vera Sans" font-size="7.00">&#45; title : VARCHAR</text>
<text text-anchor="start" x="60" y="-501.4" font-family="Bitstream-Vera Sans" font-size="7.00">&#45; description : VARCHAR</text>
<text text-anchor="start" x="60" y="-489.4" font-family="Bitstream-Vera Sans" font-size="7.00">&#45; value : INTEGER</text>
<text text-anchor="start" x="60" y="-477.4" font-family="Bitstream-Vera Sans" font-size="7.00">&#45; hidden : BOOLEAN</text>
<polygon fill="none" stroke="black" points="56.5,-472 56.5,-548 147.5,-548 147.5,-472 56.5,-472"/>
</g>
<!-- ingredient -->
<g id="node2" class="node">
<title>ingredient</title>
<text text-anchor="start" x="38.5" y="-419.4" font-family="Bitstream-Vera Sans" font-size="7.00">ingredient</text>
<polygon fill="none" stroke="black" points="13,-413 13,-415 102,-415 102,-413 13,-413"/>
<text text-anchor="start" x="15" y="-405.4" font-family="Bitstream-Vera Sans" font-size="7.00">&#45; id : INTEGER</text>
<text text-anchor="start" x="15" y="-393.4" font-family="Bitstream-Vera Sans" font-size="7.00">&#45; type : VARCHAR(5)</text>
<text text-anchor="start" x="15" y="-381.4" font-family="Bitstream-Vera Sans" font-size="7.00">&#45; available : BOOLEAN</text>
<text text-anchor="start" x="15" y="-369.4" font-family="Bitstream-Vera Sans" font-size="7.00">&#45; meat : BOOLEAN</text>
<text text-anchor="start" x="15" y="-357.4" font-family="Bitstream-Vera Sans" font-size="7.00">&#45; vegetarian : BOOLEAN</text>
<text text-anchor="start" x="15" y="-345.4" font-family="Bitstream-Vera Sans" font-size="7.00">&#45; vegan : BOOLEAN</text>
<text text-anchor="start" x="15" y="-333.4" font-family="Bitstream-Vera Sans" font-size="7.00">&#45; gluten : BOOLEAN</text>
<text text-anchor="start" x="15" y="-321.4" font-family="Bitstream-Vera Sans" font-size="7.00">&#45; histamine : BOOLEAN</text>
<text text-anchor="start" x="15" y="-309.4" font-family="Bitstream-Vera Sans" font-size="7.00">&#45; fructose : BOOLEAN</text>
<text text-anchor="start" x="15" y="-297.4" font-family="Bitstream-Vera Sans" font-size="7.00">&#45; lactose : BOOLEAN</text>
<text text-anchor="start" x="15" y="-285.4" font-family="Bitstream-Vera Sans" font-size="7.00">&#45; name : VARCHAR</text>
<text text-anchor="start" x="15" y="-273.4" font-family="Bitstream-Vera Sans" font-size="7.00">&#45; session_id : INTEGER</text>
<polygon fill="none" stroke="black" points="11.5,-268 11.5,-428 102.5,-428 102.5,-268 11.5,-268"/>
</g>
<!-- pan_ingredients -->
<g id="node5" class="node">
<title>pan_ingredients</title>
<text text-anchor="start" x="28" y="-167.4" font-family="Bitstream-Vera Sans" font-size="7.00">pan_ingredients</text>
<polygon fill="none" stroke="black" points="10,-161 10,-163 105,-163 105,-161 10,-161"/>
<text text-anchor="start" x="12" y="-153.4" font-family="Bitstream-Vera Sans" font-size="7.00">&#45; pan_id : INTEGER</text>
<text text-anchor="start" x="12" y="-141.4" font-family="Bitstream-Vera Sans" font-size="7.00">&#45; ingredient_id : INTEGER</text>
<polygon fill="none" stroke="black" points="8.5,-136 8.5,-176 105.5,-176 105.5,-136 8.5,-136"/>
</g>
<!-- ingredient&#45;&gt;pan_ingredients -->
<g id="edge4" class="edge">
<title>ingredient&#45;&gt;pan_ingredients</title>
<path fill="none" stroke="black" d="M57,-263.94C57,-233.38 57,-201.15 57,-180.16"/>
<text text-anchor="middle" x="49" y="-182.56" font-family="Bitstream-Vera Sans" font-size="7.00">+ id</text>
<text text-anchor="middle" x="28.5" y="-258.34" font-family="Bitstream-Vera Sans" font-size="7.00">+ ingredient_id</text>
</g>
<!-- session -->
<g id="node7" class="node">
<title>session</title>
<text text-anchor="start" x="172.5" y="-185.4" font-family="Bitstream-Vera Sans" font-size="7.00">session</text>
<polygon fill="none" stroke="black" points="141,-179 141,-181 232,-181 232,-179 141,-179"/>
<text text-anchor="start" x="143" y="-171.4" font-family="Bitstream-Vera Sans" font-size="7.00">&#45; id : INTEGER</text>
<text text-anchor="start" x="143" y="-159.4" font-family="Bitstream-Vera Sans" font-size="7.00">&#45; key : VARCHAR</text>
<text text-anchor="start" x="143" y="-147.4" font-family="Bitstream-Vera Sans" font-size="7.00">&#45; name : VARCHAR</text>
<text text-anchor="start" x="143" y="-135.4" font-family="Bitstream-Vera Sans" font-size="7.00">&#45; timestamp : DATETIME</text>
<text text-anchor="start" x="143" y="-123.4" font-family="Bitstream-Vera Sans" font-size="7.00">&#45; active : BOOLEAN</text>
<polygon fill="none" stroke="black" points="139.5,-118 139.5,-194 232.5,-194 232.5,-118 139.5,-118"/>
</g>
<!-- ingredient&#45;&gt;session -->
<g id="edge1" class="edge">
<title>ingredient&#45;&gt;session</title>
<path fill="none" stroke="black" d="M110.59,-268.07C125.2,-246.55 140.58,-223.89 153.62,-204.69"/>
<ellipse fill="none" stroke="black" cx="155.88" cy="-201.36" rx="4" ry="4"/>
<text text-anchor="middle" x="150.13" y="-200.46" font-family="Bitstream-Vera Sans" font-size="7.00">+ id</text>
<text text-anchor="middle" x="133.59" y="-270.47" font-family="Bitstream-Vera Sans" font-size="7.00">+ session_id</text>
</g>
<!-- insult -->
<g id="node3" class="node">
<title>insult</title>
<text text-anchor="start" x="324.5" y="-521.4" font-family="Bitstream-Vera Sans" font-size="7.00">insult</text>
<polygon fill="none" stroke="black" points="303,-515 303,-517 367,-517 367,-515 303,-515"/>
<text text-anchor="start" x="305" y="-507.4" font-family="Bitstream-Vera Sans" font-size="7.00">&#45; id : INTEGER</text>
<text text-anchor="start" x="305" y="-495.4" font-family="Bitstream-Vera Sans" font-size="7.00">&#45; title : VARCHAR</text>
<polygon fill="none" stroke="black" points="302,-490 302,-530 368,-530 368,-490 302,-490"/>
</g>
<!-- rating -->
<g id="node4" class="node">
<title>rating</title>
<text text-anchor="start" x="214" y="-539.4" font-family="Bitstream-Vera Sans" font-size="7.00">rating</text>
<polygon fill="none" stroke="black" points="183,-533 183,-535 267,-535 267,-533 183,-533"/>
<text text-anchor="start" x="185" y="-525.4" font-family="Bitstream-Vera Sans" font-size="7.00">&#45; id : INTEGER</text>
<text text-anchor="start" x="185" y="-513.4" font-family="Bitstream-Vera Sans" font-size="7.00">&#45; rating : INTEGER</text>
<text text-anchor="start" x="185" y="-501.4" font-family="Bitstream-Vera Sans" font-size="7.00">&#45; user : VARCHAR</text>
<text text-anchor="start" x="185" y="-489.4" font-family="Bitstream-Vera Sans" font-size="7.00">&#45; pan_id : INTEGER</text>
<text text-anchor="start" x="185" y="-477.4" font-family="Bitstream-Vera Sans" font-size="7.00">&#45; session_id : INTEGER</text>
<polygon fill="none" stroke="black" points="182,-472 182,-548 268,-548 268,-472 182,-472"/>
</g>
<!-- pan -->
<g id="node6" class="node">
<title>pan</title>
<text text-anchor="start" x="176.5" y="-383.4" font-family="Bitstream-Vera Sans" font-size="7.00">pan</text>
<polygon fill="none" stroke="black" points="138,-377 138,-379 229,-379 229,-377 138,-377"/>
<text text-anchor="start" x="140" y="-369.4" font-family="Bitstream-Vera Sans" font-size="7.00">&#45; id : INTEGER</text>
<text text-anchor="start" x="140" y="-357.4" font-family="Bitstream-Vera Sans" font-size="7.00">&#45; user : VARCHAR</text>
<text text-anchor="start" x="140" y="-345.4" font-family="Bitstream-Vera Sans" font-size="7.00">&#45; timestamp : DATETIME</text>
<text text-anchor="start" x="140" y="-333.4" font-family="Bitstream-Vera Sans" font-size="7.00">&#45; snacked : BOOLEAN</text>
<text text-anchor="start" x="140" y="-321.4" font-family="Bitstream-Vera Sans" font-size="7.00">&#45; name : VARCHAR</text>
<text text-anchor="start" x="140" y="-309.4" font-family="Bitstream-Vera Sans" font-size="7.00">&#45; session_id : INTEGER</text>
<polygon fill="none" stroke="black" points="136.5,-304 136.5,-392 229.5,-392 229.5,-304 136.5,-304"/>
</g>
<!-- rating&#45;&gt;pan -->
<g id="edge3" class="edge">
<title>rating&#45;&gt;pan</title>
<path fill="none" stroke="black" d="M214.18,-467.8C209.08,-448.34 202.91,-424.84 197.41,-403.89"/>
<ellipse fill="none" stroke="black" cx="196.35" cy="-399.88" rx="4" ry="4"/>
<text text-anchor="middle" x="187.34" y="-398.41" font-family="Bitstream-Vera Sans" font-size="7.00">+ id</text>
<text text-anchor="middle" x="197.68" y="-462.2" font-family="Bitstream-Vera Sans" font-size="7.00">+ pan_id</text>
</g>
<!-- rating&#45;&gt;session -->
<g id="edge2" class="edge">
<title>rating&#45;&gt;session</title>
<path fill="none" stroke="black" d="M239.03,-467.9C242.31,-456.42 245.34,-443.84 247,-432 257.36,-358.06 266.13,-336.17 247,-264 241.56,-243.47 231.16,-222.77 220.47,-205.11"/>
<ellipse fill="none" stroke="black" cx="218.31" cy="-201.65" rx="4" ry="4"/>
<text text-anchor="middle" x="208.2" y="-200.65" font-family="Bitstream-Vera Sans" font-size="7.00">+ id</text>
<text text-anchor="middle" x="262.03" y="-462.3" font-family="Bitstream-Vera Sans" font-size="7.00">+ session_id</text>
</g>
<!-- pan&#45;&gt;pan_ingredients -->
<g id="edge5" class="edge">
<title>pan&#45;&gt;pan_ingredients</title>
<path fill="none" stroke="black" d="M151.53,-299.55C126.31,-261.51 92.01,-209.79 72.41,-180.24"/>
<text text-anchor="middle" x="64.41" y="-182.64" font-family="Bitstream-Vera Sans" font-size="7.00">+ id</text>
<text text-anchor="middle" x="135.03" y="-293.95" font-family="Bitstream-Vera Sans" font-size="7.00">+ pan_id</text>
</g>
<!-- pan&#45;&gt;session -->
<g id="edge6" class="edge">
<title>pan&#45;&gt;session</title>
<path fill="none" stroke="black" d="M183.75,-299.55C184.2,-271.13 184.77,-235.08 185.22,-206.34"/>
<ellipse fill="none" stroke="black" cx="185.29" cy="-202.05" rx="4" ry="4"/>
<text text-anchor="middle" x="177.35" y="-200.46" font-family="Bitstream-Vera Sans" font-size="7.00">+ id</text>
<text text-anchor="middle" x="206.75" y="-293.95" font-family="Bitstream-Vera Sans" font-size="7.00">+ session_id</text>
</g>
<!-- user_sessions -->
<g id="node8" class="node">
<title>user_sessions</title>
<text text-anchor="start" x="223.5" y="-35.4" font-family="Bitstream-Vera Sans" font-size="7.00">user_sessions</text>
<polygon fill="none" stroke="black" points="207,-29 207,-31 291,-31 291,-29 207,-29"/>
<text text-anchor="start" x="209" y="-21.4" font-family="Bitstream-Vera Sans" font-size="7.00">&#45; user_id : INTEGER</text>
<text text-anchor="start" x="209" y="-9.4" font-family="Bitstream-Vera Sans" font-size="7.00">&#45; session_id : INTEGER</text>
<polygon fill="none" stroke="black" points="206,-4 206,-44 292,-44 292,-4 206,-4"/>
</g>
<!-- session&#45;&gt;user_sessions -->
<g id="edge8" class="edge">
<title>session&#45;&gt;user_sessions</title>
<path fill="none" stroke="black" d="M205.93,-113.87C216.46,-92.15 228.99,-66.3 237.81,-48.09"/>
<text text-anchor="middle" x="229.81" y="-50.49" font-family="Bitstream-Vera Sans" font-size="7.00">+ id</text>
<text text-anchor="middle" x="182.93" y="-108.27" font-family="Bitstream-Vera Sans" font-size="7.00">+ session_id</text>
</g>
<!-- user -->
<g id="node9" class="node">
<title>user</title>
<text text-anchor="start" x="304.5" y="-215.4" font-family="Bitstream-Vera Sans" font-size="7.00">user</text>
<polygon fill="none" stroke="black" points="268,-209 268,-211 357,-211 357,-209 268,-209"/>
<text text-anchor="start" x="270" y="-201.4" font-family="Bitstream-Vera Sans" font-size="7.00">&#45; id : INTEGER</text>
<text text-anchor="start" x="270" y="-189.4" font-family="Bitstream-Vera Sans" font-size="7.00">&#45; name : VARCHAR</text>
<text text-anchor="start" x="270" y="-177.4" font-family="Bitstream-Vera Sans" font-size="7.00">&#45; password : VARCHAR</text>
<text text-anchor="start" x="270" y="-165.4" font-family="Bitstream-Vera Sans" font-size="7.00">&#45; meat : BOOLEAN</text>
<text text-anchor="start" x="270" y="-153.4" font-family="Bitstream-Vera Sans" font-size="7.00">&#45; vegetarian : BOOLEAN</text>
<text text-anchor="start" x="270" y="-141.4" font-family="Bitstream-Vera Sans" font-size="7.00">&#45; vegan : BOOLEAN</text>
<text text-anchor="start" x="270" y="-129.4" font-family="Bitstream-Vera Sans" font-size="7.00">&#45; histamine : BOOLEAN</text>
<text text-anchor="start" x="270" y="-117.4" font-family="Bitstream-Vera Sans" font-size="7.00">&#45; fructose : BOOLEAN</text>
<text text-anchor="start" x="270" y="-105.4" font-family="Bitstream-Vera Sans" font-size="7.00">&#45; lactose : BOOLEAN</text>
<text text-anchor="start" x="270" y="-93.4" font-family="Bitstream-Vera Sans" font-size="7.00">&#45; gluten : BOOLEAN</text>
<polygon fill="none" stroke="black" points="266.5,-88 266.5,-224 357.5,-224 357.5,-88 266.5,-88"/>
</g>
<!-- user&#45;&gt;user_sessions -->
<g id="edge7" class="edge">
<title>user&#45;&gt;user_sessions</title>
<path fill="none" stroke="black" d="M277.55,-83.91C271.29,-70.99 265.18,-58.39 260.24,-48.19"/>
<text text-anchor="middle" x="252.24" y="-50.59" font-family="Bitstream-Vera Sans" font-size="7.00">+ id</text>
<text text-anchor="middle" x="260.05" y="-78.31" font-family="Bitstream-Vera Sans" font-size="7.00">+ user_id</text>
</g>
</g>
</svg>
