<?xml version="1.0" encoding="UTF-8" standalone="no"?>
<!DOCTYPE svg PUBLIC "-//W3C//DTD SVG 1.1//EN"
 "http://www.w3.org/Graphics/SVG/1.1/DTD/svg11.dtd">
<!-- Generated by graphviz version 2.43.0 (0)
 -->
<!-- Title: G Pages: 1 -->
<svg width="406pt" height="416pt"
 viewBox="0.00 0.00 406.00 416.00" xmlns="http://www.w3.org/2000/svg" xmlns:xlink="http://www.w3.org/1999/xlink">
<g id="graph0" class="graph" transform="scale(1 1) rotate(0) translate(4 412)">
<title>G</title>
<polygon fill="white" stroke="transparent" points="-4,4 -4,-412 402,-412 402,4 -4,4"/>
<!-- achievement -->
<g id="node1" class="node">
<title>achievement</title>
<text text-anchor="start" x="74" y="-395.4" font-family="Bitstream-Vera Sans" font-size="7.00">achievement</text>
<polygon fill="none" stroke="black" points="53.5,-389 53.5,-391 142.5,-391 142.5,-389 53.5,-389"/>
<text text-anchor="start" x="55.5" y="-381.4" font-family="Bitstream-Vera Sans" font-size="7.00">&#45; id : INTEGER</text>
<text text-anchor="start" x="55.5" y="-369.4" font-family="Bitstream-Vera Sans" font-size="7.00">&#45; title : VARCHAR</text>
<text text-anchor="start" x="55.5" y="-357.4" font-family="Bitstream-Vera Sans" font-size="7.00">&#45; description : VARCHAR</text>
<text text-anchor="start" x="55.5" y="-345.4" font-family="Bitstream-Vera Sans" font-size="7.00">&#45; value : INTEGER</text>
<text text-anchor="start" x="55.5" y="-333.4" font-family="Bitstream-Vera Sans" font-size="7.00">&#45; hidden : BOOLEAN</text>
<polygon fill="none" stroke="black" points="52,-328 52,-404 143,-404 143,-328 52,-328"/>
</g>
<!-- ingredient -->
<g id="node2" class="node">
<title>ingredient</title>
<text text-anchor="start" x="35" y="-275.4" font-family="Bitstream-Vera Sans" font-size="7.00">ingredient</text>
<polygon fill="none" stroke="black" points="9.5,-269 9.5,-271 98.5,-271 98.5,-269 9.5,-269"/>
<text text-anchor="start" x="11.5" y="-261.4" font-family="Bitstream-Vera Sans" font-size="7.00">&#45; id : INTEGER</text>
<text text-anchor="start" x="11.5" y="-249.4" font-family="Bitstream-Vera Sans" font-size="7.00">&#45; type : VARCHAR(5)</text>
<text text-anchor="start" x="11.5" y="-237.4" font-family="Bitstream-Vera Sans" font-size="7.00">&#45; available : BOOLEAN</text>
<text text-anchor="start" x="11.5" y="-225.4" font-family="Bitstream-Vera Sans" font-size="7.00">&#45; meat : BOOLEAN</text>
<text text-anchor="start" x="11.5" y="-213.4" font-family="Bitstream-Vera Sans" font-size="7.00">&#45; vegetarian : BOOLEAN</text>
<text text-anchor="start" x="11.5" y="-201.4" font-family="Bitstream-Vera Sans" font-size="7.00">&#45; vegan : BOOLEAN</text>
<text text-anchor="start" x="11.5" y="-189.4" font-family="Bitstream-Vera Sans" font-size="7.00">&#45; gluten : BOOLEAN</text>
<text text-anchor="start" x="11.5" y="-177.4" font-family="Bitstream-Vera Sans" font-size="7.00">&#45; histamine : BOOLEAN</text>
<text text-anchor="start" x="11.5" y="-165.4" font-family="Bitstream-Vera Sans" font-size="7.00">&#45; fructose : BOOLEAN</text>
<text text-anchor="start" x="11.5" y="-153.4" font-family="Bitstream-Vera Sans" font-size="7.00">&#45; lactose : BOOLEAN</text>
<text text-anchor="start" x="11.5" y="-141.4" font-family="Bitstream-Vera Sans" font-size="7.00">&#45; name : VARCHAR</text>
<text text-anchor="start" x="11.5" y="-129.4" font-family="Bitstream-Vera Sans" font-size="7.00">&#45; session_id : INTEGER</text>
<polygon fill="none" stroke="black" points="8,-124 8,-284 99,-284 99,-124 8,-124"/>
</g>
<!-- pan_ingredients -->
<g id="node5" class="node">
<title>pan_ingredients</title>
<text text-anchor="start" x="64.5" y="-53.4" font-family="Bitstream-Vera Sans" font-size="7.00">pan_ingredients</text>
<polygon fill="none" stroke="black" points="46.5,-47 46.5,-49 141.5,-49 141.5,-47 46.5,-47"/>
<text text-anchor="start" x="48.5" y="-39.4" font-family="Bitstream-Vera Sans" font-size="7.00">&#45; pan_id : INTEGER</text>
<text text-anchor="start" x="48.5" y="-27.4" font-family="Bitstream-Vera Sans" font-size="7.00">&#45; ingredient_id : INTEGER</text>
<polygon fill="none" stroke="black" points="45,-22 45,-62 142,-62 142,-22 45,-22"/>
</g>
<!-- ingredient&#45;&gt;pan_ingredients -->
<g id="edge5" class="edge">
<title>ingredient&#45;&gt;pan_ingredients</title>
<path fill="none" stroke="black" d="M74.32,-119.72C79.26,-99.98 84.12,-80.5 87.72,-66.11"/>
<text text-anchor="middle" x="79.72" y="-68.51" font-family="Bitstream-Vera Sans" font-size="7.00">+ id</text>
<text text-anchor="middle" x="45.82" y="-114.12" font-family="Bitstream-Vera Sans" font-size="7.00">+ ingredient_id</text>
</g>
<!-- session -->
<g id="node7" class="node">
<title>session</title>
<text text-anchor="start" x="229" y="-71.4" font-family="Bitstream-Vera Sans" font-size="7.00">session</text>
<polygon fill="none" stroke="black" points="197.5,-65 197.5,-67 288.5,-67 288.5,-65 197.5,-65"/>
<text text-anchor="start" x="199.5" y="-57.4" font-family="Bitstream-Vera Sans" font-size="7.00">&#45; id : INTEGER</text>
<text text-anchor="start" x="199.5" y="-45.4" font-family="Bitstream-Vera Sans" font-size="7.00">&#45; key : VARCHAR</text>
<text text-anchor="start" x="199.5" y="-33.4" font-family="Bitstream-Vera Sans" font-size="7.00">&#45; name : VARCHAR</text>
<text text-anchor="start" x="199.5" y="-21.4" font-family="Bitstream-Vera Sans" font-size="7.00">&#45; timestamp : DATETIME</text>
<text text-anchor="start" x="199.5" y="-9.4" font-family="Bitstream-Vera Sans" font-size="7.00">&#45; active : BOOLEAN</text>
<polygon fill="none" stroke="black" points="196,-4 196,-80 289,-80 289,-4 196,-4"/>
</g>
<!-- ingredient&#45;&gt;session -->
<g id="edge1" class="edge">
<title>ingredient&#45;&gt;session</title>
<path fill="none" stroke="black" d="M107.25,-128C109.95,-125.22 112.7,-122.54 115.5,-120 134.88,-102.41 158.86,-86.66 180.74,-74.06"/>
<ellipse fill="none" stroke="black" cx="184.29" cy="-72.05" rx="4" ry="4"/>
<text text-anchor="middle" x="179.77" y="-72.48" font-family="Bitstream-Vera Sans" font-size="7.00">+ id</text>
<text text-anchor="middle" x="130.25" y="-130.4" font-family="Bitstream-Vera Sans" font-size="7.00">+ session_id</text>
</g>
<!-- insult -->
<g id="node3" class="node">
<title>insult</title>
<text text-anchor="start" x="320" y="-377.4" font-family="Bitstream-Vera Sans" font-size="7.00">insult</text>
<polygon fill="none" stroke="black" points="298.5,-371 298.5,-373 362.5,-373 362.5,-371 298.5,-371"/>
<text text-anchor="start" x="300.5" y="-363.4" font-family="Bitstream-Vera Sans" font-size="7.00">&#45; id : INTEGER</text>
<text text-anchor="start" x="300.5" y="-351.4" font-family="Bitstream-Vera Sans" font-size="7.00">&#45; title : VARCHAR</text>
<polygon fill="none" stroke="black" points="297.5,-346 297.5,-386 363.5,-386 363.5,-346 297.5,-346"/>
</g>
<!-- rating -->
<g id="node4" class="node">
<title>rating</title>
<text text-anchor="start" x="209.5" y="-395.4" font-family="Bitstream-Vera Sans" font-size="7.00">rating</text>
<polygon fill="none" stroke="black" points="178.5,-389 178.5,-391 262.5,-391 262.5,-389 178.5,-389"/>
<text text-anchor="start" x="180.5" y="-381.4" font-family="Bitstream-Vera Sans" font-size="7.00">&#45; id : INTEGER</text>
<text text-anchor="start" x="180.5" y="-369.4" font-family="Bitstream-Vera Sans" font-size="7.00">&#45; rating : INTEGER</text>
<text text-anchor="start" x="180.5" y="-357.4" font-family="Bitstream-Vera Sans" font-size="7.00">&#45; user : VARCHAR</text>
<text text-anchor="start" x="180.5" y="-345.4" font-family="Bitstream-Vera Sans" font-size="7.00">&#45; pan_id : INTEGER</text>
<text text-anchor="start" x="180.5" y="-333.4" font-family="Bitstream-Vera Sans" font-size="7.00">&#45; session_id : INTEGER</text>
<polygon fill="none" stroke="black" points="177.5,-328 177.5,-404 263.5,-404 263.5,-328 177.5,-328"/>
</g>
<!-- pan -->
<g id="node6" class="node">
<title>pan</title>
<text text-anchor="start" x="173" y="-239.4" font-family="Bitstream-Vera Sans" font-size="7.00">pan</text>
<polygon fill="none" stroke="black" points="134.5,-233 134.5,-235 225.5,-235 225.5,-233 134.5,-233"/>
<text text-anchor="start" x="136.5" y="-225.4" font-family="Bitstream-Vera Sans" font-size="7.00">&#45; id : INTEGER</text>
<text text-anchor="start" x="136.5" y="-213.4" font-family="Bitstream-Vera Sans" font-size="7.00">&#45; user : VARCHAR</text>
<text text-anchor="start" x="136.5" y="-201.4" font-family="Bitstream-Vera Sans" font-size="7.00">&#45; timestamp : DATETIME</text>
<text text-anchor="start" x="136.5" y="-189.4" font-family="Bitstream-Vera Sans" font-size="7.00">&#45; snacked : BOOLEAN</text>
<text text-anchor="start" x="136.5" y="-177.4" font-family="Bitstream-Vera Sans" font-size="7.00">&#45; name : VARCHAR</text>
<text text-anchor="start" x="136.5" y="-165.4" font-family="Bitstream-Vera Sans" font-size="7.00">&#45; session_id : INTEGER</text>
<polygon fill="none" stroke="black" points="133,-160 133,-248 226,-248 226,-160 133,-160"/>
</g>
<!-- rating&#45;&gt;pan -->
<g id="edge3" class="edge">
<title>rating&#45;&gt;pan</title>
<path fill="none" stroke="black" d="M209.94,-323.8C204.96,-304.34 198.93,-280.84 193.57,-259.89"/>
<ellipse fill="none" stroke="black" cx="192.54" cy="-255.88" rx="4" ry="4"/>
<text text-anchor="middle" x="183.55" y="-254.41" font-family="Bitstream-Vera Sans" font-size="7.00">+ id</text>
<text text-anchor="middle" x="193.44" y="-318.2" font-family="Bitstream-Vera Sans" font-size="7.00">+ pan_id</text>
</g>
<!-- rating&#45;&gt;session -->
<g id="edge2" class="edge">
<title>rating&#45;&gt;session</title>
<path fill="none" stroke="black" d="M235.16,-323.94C238.6,-312.46 241.76,-299.87 243.5,-288 253.35,-220.62 250.49,-141.7 246.96,-92.03"/>
<ellipse fill="none" stroke="black" cx="246.67" cy="-88" rx="4" ry="4"/>
<text text-anchor="middle" x="238.37" y="-86.41" font-family="Bitstream-Vera Sans" font-size="7.00">+ id</text>
<text text-anchor="middle" x="258.16" y="-318.34" font-family="Bitstream-Vera Sans" font-size="7.00">+ session_id</text>
</g>
<!-- pan&#45;&gt;pan_ingredients -->
<g id="edge4" class="edge">
<title>pan&#45;&gt;pan_ingredients</title>
<path fill="none" stroke="black" d="M154.16,-155.86C138.31,-126.36 118.57,-89.65 106.01,-66.27"/>
<text text-anchor="middle" x="98.01" y="-68.67" font-family="Bitstream-Vera Sans" font-size="7.00">+ id</text>
<text text-anchor="middle" x="137.66" y="-150.26" font-family="Bitstream-Vera Sans" font-size="7.00">+ pan_id</text>
</g>
<!-- pan&#45;&gt;session -->
<g id="edge6" class="edge">
<title>pan&#45;&gt;session</title>
<path fill="none" stroke="black" d="M198.06,-155.86C206.01,-135.67 215.29,-112.1 223.31,-91.74"/>
<ellipse fill="none" stroke="black" cx="224.85" cy="-87.83" rx="4" ry="4"/>
<text text-anchor="middle" x="218.31" y="-86.51" font-family="Bitstream-Vera Sans" font-size="7.00">+ id</text>
<text text-anchor="middle" x="221.06" y="-150.26" font-family="Bitstream-Vera Sans" font-size="7.00">+ session_id</text>
</g>
<!-- user -->
<g id="node8" class="node">
<title>user</title>
<text text-anchor="start" x="337" y="-269.4" font-family="Bitstream-Vera Sans" font-size="7.00">user</text>
<polygon fill="none" stroke="black" points="300.5,-263 300.5,-265 389.5,-265 389.5,-263 300.5,-263"/>
<text text-anchor="start" x="302.5" y="-255.4" font-family="Bitstream-Vera Sans" font-size="7.00">&#45; id : INTEGER</text>
<text text-anchor="start" x="302.5" y="-243.4" font-family="Bitstream-Vera Sans" font-size="7.00">&#45; name : VARCHAR</text>
<text text-anchor="start" x="302.5" y="-231.4" font-family="Bitstream-Vera Sans" font-size="7.00">&#45; password : VARCHAR</text>
<text text-anchor="start" x="302.5" y="-219.4" font-family="Bitstream-Vera Sans" font-size="7.00">&#45; meat : BOOLEAN</text>
<text text-anchor="start" x="302.5" y="-207.4" font-family="Bitstream-Vera Sans" font-size="7.00">&#45; vegetarian : BOOLEAN</text>
<text text-anchor="start" x="302.5" y="-195.4" font-family="Bitstream-Vera Sans" font-size="7.00">&#45; vegan : BOOLEAN</text>
<text text-anchor="start" x="302.5" y="-183.4" font-family="Bitstream-Vera Sans" font-size="7.00">&#45; histamine : BOOLEAN</text>
<text text-anchor="start" x="302.5" y="-171.4" font-family="Bitstream-Vera Sans" font-size="7.00">&#45; fructose : BOOLEAN</text>
<text text-anchor="start" x="302.5" y="-159.4" font-family="Bitstream-Vera Sans" font-size="7.00">&#45; lactose : BOOLEAN</text>
<text text-anchor="start" x="302.5" y="-147.4" font-family="Bitstream-Vera Sans" font-size="7.00">&#45; gluten : BOOLEAN</text>
<text text-anchor="start" x="302.5" y="-135.4" font-family="Bitstream-Vera Sans" font-size="7.00">&#45; session_id : INTEGER</text>
<polygon fill="none" stroke="black" points="299,-130 299,-278 390,-278 390,-130 299,-130"/>
</g>
<!-- user&#45;&gt;session -->
<g id="edge7" class="edge">
<title>user&#45;&gt;session</title>
<path fill="none" stroke="black" d="M295.29,-125.81C287.77,-114.01 280.2,-102.13 273.23,-91.2"/>
<ellipse fill="none" stroke="black" cx="270.89" cy="-87.53" rx="4" ry="4"/>
<text text-anchor="middle" x="260.74" y="-86.56" font-family="Bitstream-Vera Sans" font-size="7.00">+ id</text>
<text text-anchor="middle" x="272.29" y="-120.21" font-family="Bitstream-Vera Sans" font-size="7.00">+ session_id</text>
</g>
</g>
</svg>
